# xmcd
#
# Track frame offsets:
#	150
#	11553
#	22386
#	27877
#	41058
#
# Disc length: 575 seconds
#
# Revision: 0
# Processed by: cddbd v1.5.1PL0 Copyright (c) Steve Scherf et al.
# Submitted via: dBpowerAMP V4.0
#
DISCID=3a023d05
DTITLE=Rassaccas - Sommeridyll
DYEAR=2005
DGENRE=
TTITLE0=Sommeridyll
TTITLE1=Jonas
TTITLE2=Dyså
TTITLE3=I'm In Love
TTITLE4=Bonustrack
EXTD=Rassaccas, a local band from Haugesund
EXTT0=
EXTT1=
EXTT2=
EXTT3=
EXTT4=
PLAYORDER=
